REM DIRINDEX 1\2,1\3,1\4,1\5\6,1\5\7,1\8
REM DIRNAME folder01,folder02,folder03,folder04,folder05,folder06,folder07,folder08
TITLE ""
FILE "067 【067】Unit4 (0757 curfew_0768 fulfill).mp3" MP3
  TRACK 01 AUDIO
    TITLE "0:"
    INDEX 01 00:00:00
  TRACK 02 AUDIO
    TITLE "2:cjc115_2614"
    INDEX 01 00:00:07
  TRACK 03 AUDIO
    TITLE "0:"
    INDEX 01 00:01:21
  TRACK 04 AUDIO
    TITLE "3:cjc115_2615"
    INDEX 01 00:01:28
  TRACK 05 AUDIO
    TITLE "0:"
    INDEX 01 00:02:42
  TRACK 06 AUDIO
    TITLE "4:cjc115_2616"
    INDEX 01 00:02:47
  TRACK 07 AUDIO
    TITLE "0:"
    INDEX 01 00:06:51
  TRACK 08 AUDIO
    TITLE "2:cjc115_2617"
    INDEX 01 00:07:60
  TRACK 09 AUDIO
    TITLE "0:"
    INDEX 01 00:09:06
  TRACK 10 AUDIO
    TITLE "3:cjc115_2618"
    INDEX 01 00:09:14
  TRACK 11 AUDIO
    TITLE "0:"
    INDEX 01 00:11:64
  TRACK 12 AUDIO
    TITLE "4:cjc115_2619"
    INDEX 01 00:11:70
  TRACK 13 AUDIO
    TITLE "0:"
    INDEX 01 00:15:60
  TRACK 14 AUDIO
    TITLE "2:cjc115_2620"
    INDEX 01 00:16:67
  TRACK 15 AUDIO
    TITLE "0:"
    INDEX 01 00:18:31
  TRACK 16 AUDIO
    TITLE "3:cjc115_2621"
    INDEX 01 00:18:39
  TRACK 17 AUDIO
    TITLE "0:"
    INDEX 01 00:20:55
  TRACK 18 AUDIO
    TITLE "4:cjc115_2622"
    INDEX 01 00:20:63
  TRACK 19 AUDIO
    TITLE "0:"
    INDEX 01 00:25:19
  TRACK 20 AUDIO
    TITLE "2:cjc115_2623"
    INDEX 01 00:26:24
  TRACK 21 AUDIO
    TITLE "0:"
    INDEX 01 00:27:55
  TRACK 22 AUDIO
    TITLE "3:cjc115_2624"
    INDEX 01 00:27:65
  TRACK 23 AUDIO
    TITLE "0:"
    INDEX 01 00:29:25
  TRACK 24 AUDIO
    TITLE "4:cjc115_2625"
    INDEX 01 00:29:29
  TRACK 25 AUDIO
    TITLE "0:"
    INDEX 01 00:33:54
  TRACK 26 AUDIO
    TITLE "2:cjc115_2626"
    INDEX 01 00:34:65
  TRACK 27 AUDIO
    TITLE "0:"
    INDEX 01 00:36:13
  TRACK 28 AUDIO
    TITLE "3:cjc115_2627"
    INDEX 01 00:36:19
  TRACK 29 AUDIO
    TITLE "0:"
    INDEX 01 00:39:70
  TRACK 30 AUDIO
    TITLE "4:cjc115_2628"
    INDEX 01 00:40:07
  TRACK 31 AUDIO
    TITLE "0:"
    INDEX 01 00:42:57
  TRACK 32 AUDIO
    TITLE "2:cjc115_2629"
    INDEX 01 00:43:66
  TRACK 33 AUDIO
    TITLE "0:"
    INDEX 01 00:45:06
  TRACK 34 AUDIO
    TITLE "3:cjc115_2630"
    INDEX 01 00:45:14
  TRACK 35 AUDIO
    TITLE "0:"
    INDEX 01 00:46:58
  TRACK 36 AUDIO
    TITLE "4:cjc115_2631"
    INDEX 01 00:46:66
  TRACK 37 AUDIO
    TITLE "0:"
    INDEX 01 00:51:16
  TRACK 38 AUDIO
    TITLE "2:cjc115_2632"
    INDEX 01 00:52:26
  TRACK 39 AUDIO
    TITLE "0:"
    INDEX 01 00:53:37
  TRACK 40 AUDIO
    TITLE "3:cjc115_2633"
    INDEX 01 00:53:49
  TRACK 41 AUDIO
    TITLE "0:"
    INDEX 01 00:55:06
  TRACK 42 AUDIO
    TITLE "4:cjc115_2634"
    INDEX 01 00:55:08
  TRACK 43 AUDIO
    TITLE "0:"
    INDEX 01 00:58:73
  TRACK 44 AUDIO
    TITLE "2:cjc115_2635"
    INDEX 01 01:00:06
  TRACK 45 AUDIO
    TITLE "0:"
    INDEX 01 01:01:19
  TRACK 46 AUDIO
    TITLE "3:cjc115_2636"
    INDEX 01 01:01:29
  TRACK 47 AUDIO
    TITLE "0:"
    INDEX 01 01:03:67
  TRACK 48 AUDIO
    TITLE "4:cjc115_2637"
    INDEX 01 01:04:01
  TRACK 49 AUDIO
    TITLE "0:"
    INDEX 01 01:09:28
  TRACK 50 AUDIO
    TITLE "2:cjc115_2638"
    INDEX 01 01:10:33
  TRACK 51 AUDIO
    TITLE "0:"
    INDEX 01 01:11:52
  TRACK 52 AUDIO
    TITLE "3:cjc115_2639"
    INDEX 01 01:11:62
  TRACK 53 AUDIO
    TITLE "0:"
    INDEX 01 01:14:43
  TRACK 54 AUDIO
    TITLE "4:cjc115_2640"
    INDEX 01 01:14:51
  TRACK 55 AUDIO
    TITLE "0:"
    INDEX 01 01:17:16
  TRACK 56 AUDIO
    TITLE "2:cjc115_2641"
    INDEX 01 01:18:21
  TRACK 57 AUDIO
    TITLE "0:"
    INDEX 01 01:19:38
  TRACK 58 AUDIO
    TITLE "3:cjc115_2642"
    INDEX 01 01:19:46
  TRACK 59 AUDIO
    TITLE "0:"
    INDEX 01 01:21:27
  TRACK 60 AUDIO
    TITLE "4:cjc115_2643"
    INDEX 01 01:21:33
  TRACK 61 AUDIO
    TITLE "0:"
    INDEX 01 01:24:57
  TRACK 62 AUDIO
    TITLE "2:cjc115_2644"
    INDEX 01 01:25:62
  TRACK 63 AUDIO
    TITLE "0:"
    INDEX 01 01:26:70
  TRACK 64 AUDIO
    TITLE "3:cjc115_2645"
    INDEX 01 01:27:04
  TRACK 65 AUDIO
    TITLE "0:"
    INDEX 01 01:30:46
  TRACK 66 AUDIO
    TITLE "4:cjc115_2646"
    INDEX 01 01:30:54
  TRACK 67 AUDIO
    TITLE "0:"
    INDEX 01 01:34:54
  TRACK 68 AUDIO
    TITLE "2:cjc115_2647"
    INDEX 01 01:35:61
  TRACK 69 AUDIO
    TITLE "0:"
    INDEX 01 01:37:01
  TRACK 70 AUDIO
    TITLE "3:cjc115_2648"
    INDEX 01 01:37:09
  TRACK 71 AUDIO
    TITLE "0:"
    INDEX 01 01:39:29
  TRACK 72 AUDIO
    TITLE "4:cjc115_2649"
    INDEX 01 01:39:33
  TRACK 73 AUDIO
    TITLE "0:"
    INDEX 01 01:43:25
